# xmcd
#
# Track frame offsets: 
#        150
#        24545
#        53584
#        64444
#        87762
#        100816
#        155370
#        181247
#        207513
#        234069
#        271117
#        290892
#
# Disc length: 4226 seconds
#
# Revision: 0
# Processed by: cddbd v1.5.1PL2 Copyright (c) Steve Scherf et al.
# Submitted via: ExactAudioCopy v0.95b2
#
DISCID=9f10800c
DTITLE=Hot Tuna - Merlefest 2006 (28 APR 2006 - Watson Stage)
DYEAR=2006
DGENRE=Blues
TTITLE0=Hesitation Blues
TTITLE1=Blue Railroad Train
TTITLE2=I'll Let You Know Before I Leave
TTITLE3=More Than My Old Guitar
TTITLE4=Embryonic Journey
TTITLE5=Good Shepherd
TTITLE6=Come Back Baby
TTITLE7=Bread Line Blues
TTITLE8=Never Happen No More
TTITLE9=I Know You Rider
TTITLE10=Living In The Moment
TTITLE11=San Francisco Bay Blues
EXTD=
EXTT0=
EXTT1=
EXTT2=
EXTT3=
EXTT4=
EXTT5=
EXTT6=
EXTT7=
EXTT8=
EXTT9=
EXTT10=
EXTT11=
PLAYORDER=
